Simulation
nRows=43
nColumns=15
endheader
time  TH_x TH_y TH_z SC_y  SC_z  SC_x  AC_y  AC_z  AC_x  GH_y  GH_z  GH_yy  EL_x  PS_y
8.073123595505619  0.000000  0.000000  0.000000  -25.64975178614664  6.808944902194348  9.670400793650504  60.40574358514516  5.533399155609015  3.58076549378539  -145.87123922937047  7.15970618377901  -158.65361584452475  16.772038376483366  120.000000
8.113288389513109  0.000000  0.000000  0.000000  -25.358539183149954  6.770526965560578  9.418578818546754  60.251252472326414  5.188461471735421  3.510517664532796  -145.2470276209619  6.053371701565532  -159.598839531571  16.2862360523681  120.000000
8.153453183520599  0.000000  0.000000  0.000000  -25.05287272014504  6.753026940647215  9.195040456379637  60.10152570982133  4.9007578778412  3.470703747835447  -145.49855662153396  4.784966768539921  -159.85845883986616  15.741645454927179  120.000000
8.19361797752809  0.000000  0.000000  0.000000  -24.736477649652276  6.767365667389788  9.018353050318131  59.96290436335068  4.690097763630472  3.4701441697051956  -147.26181953954452  3.3419499414030813  -158.8009976239334  15.15842325234418  120.000000
8.23378277153558  0.000000  0.000000  0.000000  -24.415823641101127  6.824705804254034  8.90732763928136  59.84343263786331  4.574171452399641  3.518620881855504  -154.18567885978362  1.7238356594251425  -152.77897188837073  14.560030517445183  120.000000
8.273947565543072  0.000000  0.000000  0.000000  -24.100391659693795  6.934643443312511  8.877388280242165  59.750918588048144  4.565749600473681  3.6250166601140443  107.8065210460994  0.46986812780608067  -55.86500624541858  13.970105638267121  120.000000
8.314112359550561  0.000000  0.000000  0.000000  -23.803048908763472  7.104484555269117  8.937669972457549  59.691896158169115  4.669765757916124  3.7979782702275715  51.09489769983256  2.274708792943892  -0.42879994583944503  13.40944531786586  120.000000
8.354277153558053  0.000000  0.000000  0.000000  -23.537367163369712  7.336415510121808  9.091004838925308  59.67101230324295  4.881526215897565  4.046366424681166  45.22674872341764  4.502814571772646  4.000628714334681  12.894384255210392  120.000000
8.394441947565543  0.000000  0.000000  0.000000  -23.314632883048755  7.627393346742184  9.335207988035098  59.69214091463346  5.18822912106182  4.37763411639605  42.78149581293231  6.9237700138075695  4.869049349680503  12.43512911467098  120.000000
8.434606741573035  0.000000  0.000000  0.000000  -23.144105742532027  7.972225984256722  9.664959537592235  59.75878414066082  5.572359705897101  4.7968010284422755  41.21993500768173  9.505099191327293  4.745719578318565  12.035650011398987  120.000000
8.474771535580524  0.000000  0.000000  0.000000  -23.03196268760799  8.363835614961925  10.073414433747608  59.87187906656227  6.014524538710397  5.306350986955706  39.99200009812458  12.216430469554789  4.213707137684968  11.694476187276525  120.000000
8.514936329588014  0.000000  0.000000  0.000000  -22.981583880193888  8.793627978660387  10.552899992443667  60.031099814166694  6.495486279349354  5.905070483494856  38.918808185432425  15.026290133706501  3.48437682913993  11.406413539992618  120.000000
8.555101123595506  0.000000  0.000000  0.000000  -22.994002344765693  9.252691346325637  11.095310740440144  60.23557956445973  6.997498021339914  6.588394204417357  37.93243150277866  17.903541368877427  2.655319102032443  11.164885848474192  120.000000
8.595265917602996  0.000000  0.000000  0.000000  -23.06850518644332  9.731913655239449  11.692327905978285  60.482166427057535  7.504915009710446  7.348678885749286  37.00344995543525  20.817556099298596  1.7808379749643988  10.96325972335225  120.000000
8.635430711610487  0.000000  0.000000  0.000000  -23.204953596347874  10.222511755545332  12.335412085417351  60.76563021988723  8.00460305763516  8.17459303736544  36.117139852474516  23.73886650959018  0.8945207309415572  10.795516365415025  120.000000
8.675595505617977  0.000000  0.000000  0.000000  -23.40401631374647  10.716828946315523  13.015896373320723  61.078290495891615  8.485983058146164  9.051371078821917  35.26453504461918  26.63939581815338  0.01820284404068935  10.656646148279911  120.000000
8.715760299625469  0.000000  0.000000  0.000000  -23.66646009298807  11.208143012306465  13.725168550400145  61.41080950828404  8.94111287983999  9.961669813844532  34.440040807651435  29.49312160376072  -0.8351839982736982  10.54263098022043  120.000000
8.755925093632959  0.000000  0.000000  0.000000  -23.992140621870202  11.690694754883268  14.454765941606272  61.75319866292696  9.36456015056052  10.886988618382208  33.64025111890544  32.276315969911394  -1.659276594045653  10.450510839755141  120.000000
8.79608988764045  0.000000  0.000000  0.000000  -24.379400297648118  12.15956354728384  15.196220447151646  62.09541177364933  9.753087884409798  11.80874785889658  32.86319938663695  34.96753445253681  -2.452427487161121  10.378249267498648  120.000000
8.83625468164794  0.000000  0.000000  0.000000  -24.82461276225404  12.610574720739766  15.940879263957967  62.42814675294819  10.10514764060141  12.709377564885534  32.10849738569957  37.5475776671535  -3.2163840154728005  10.324493340094161  120.000000
8.87641947565543  0.000000  0.000000  0.000000  -25.32130001708658  13.040004918687293  16.679679207973034  62.74358238946658  10.420415997766893  13.57342676705401  31.378022841087812  39.99942738106649  -3.9554476092079476  10.288461439447966  120.000000
8.916584269662922  0.000000  0.000000  0.000000  -25.86029176415977  13.444230661139198  17.40305974693163  63.03589469175494  10.699677089374742  14.388399825707962  30.675429437305713  42.30819366885983  -4.674555621055628  10.269463636585744  120.000000
8.956749063670411  0.000000  0.000000  0.000000  -26.430972323881345  13.820302718978757  18.101654104894344  63.30068149523862  10.944980307493909  15.144710025424795  30.005259962670525  44.4614559212419  -5.377330657282587  10.266333353724686  120.000000
8.996913857677903  0.000000  0.000000  0.000000  -27.022316154038073  14.166050119592523  18.76731168459096  63.53440197660116  11.160087846628334  15.835455563975616  29.3722630767865  46.44997104152167  -6.064634112465927  10.27681410965588  120.000000
9.037078651685393  0.000000  0.000000  0.000000  -27.62330411999752  14.479701369727778  19.393770324495964  63.73395394148811  11.350303545701593  16.456647446561114  28.78159631115733  48.267994603266736  -6.734114054495529  10.297378423445375  120.000000
9.077243445692885  0.000000  0.000000  0.000000  -28.223245705549502  14.759617627304545  19.976840013108493  63.8965090569542  11.521872495187607  17.007042299206752  28.239055509041652  49.91310755573226  -7.380367564603915  10.32350950113851  120.000000
9.117408239700374  0.000000  0.000000  0.000000  -28.81201741785794  15.00430010243436  20.514188022321317  64.01943739364768  11.681317738029003  17.487503733468273  27.750925480475335  51.385504962398194  -7.995521605226863  10.350175642227349  120.000000
9.157573033707866  0.000000  0.000000  0.000000  -29.379961907327164  15.212460102151063  21.004732968050433  64.10055073322327  11.834684102356356  17.90013792367411  27.323846265041084  52.6868962971268  -8.570390777132388  10.372545699494248  120.000000
9.197737827715356  0.000000  0.000000  0.000000  -29.917364644913  15.382940873468728  21.447749867737944  64.13853065959024  11.986675807763477  18.24766145041027  26.964901172968972  53.81918931263955  -9.09596692749979  10.386825276285581  120.000000
9.237902621722846  0.000000  0.000000  0.000000  -30.413893807719734  15.514828487869442  21.84203895177435  64.13343138108952  12.139982410667324  18.53282870383218  26.68170942307257  54.78323849046795  -9.5648966354422  10.390947314529207  120.000000
9.278067415730337  0.000000  0.000000  0.000000  -30.85828131600589  15.607592564177674  22.18536030249847  64.08700256788934  12.295026043856247  18.75794350663319  26.482303674776475  55.57792191339472  -9.972445683895941  10.384853991590807  120.000000
9.318232209737827  0.000000  0.000000  0.000000  -31.238374041943036  15.66118316546273  22.474229368623167  64.00270361934406  12.450082298509544  18.924531810477518  26.37484639420296  56.19969703218671  -10.316835514032737  10.370179454153954  120.000000
9.358397003745319  0.000000  0.000000  0.000000  -31.541595695618355  15.676074243338608  22.704026613155033  63.88542629433171  12.601750169149176  19.033133301753384  26.36718725086889  56.64262740593905  -10.598893856660583  10.349462142487537  120.000000
9.398561797752809  0.000000  0.000000  0.000000  -31.75574907819723  15.653235463528068  22.869289048479576  63.7409535364925  12.74557758763988  19.08322603202348  26.466369188359618  56.8987796610959  -10.8212853394785  10.325097266806289  120.000000
9.4387265917603  0.000000  0.000000  0.000000  -31.869962941088886  15.594042442261788  22.964038340351248  63.5753301926221  12.876730713231481  19.073209675126314  26.678098902681967  56.9588053498995  -10.987517256161105  10.298355597824138  120.000000
9.47889138576779  0.000000  0.000000  0.000000  -31.875641079217  15.500175764370024  22.982009019647172  63.394268738360054  12.990537999760159  19.00049722731568  27.006382871528313  56.812570853577526  -11.100999336372926  10.268731276386287  120.000000
9.519056179775282  0.000000  0.000000  0.000000  -31.76716190976005  15.373479047731571  22.916742375230967  63.20276563975283  13.082866170479427  18.86164263104212  27.453288862599827  56.44971844749251  -11.164324796239399  10.23392447709052  120.000000
9.559220973782772  0.000000  0.000000  0.000000  -31.542373885285684  15.215838254618072  22.761542912465043  63.00489912856383  13.150253458966967  18.652614013267737  28.018962583662436  55.86011716760903  -11.178894728490057  10.19054648707235  120.000000
9.599385767790261  0.000000  0.000000  0.000000  -31.20285982604599  15.029017008179935  22.50943206143645  62.80379098879659  13.189891023268189  18.369076034735276  28.701633343131473  55.03428691176895  -11.144745605449613  10.135396654846119  120.000000
9.639550561797753  0.000000  0.000000  0.000000  -30.75418610871938  14.814583936924084  22.153291031099148  62.60152089023156  13.19957067390912  18.00672449772776  29.49757674031328  53.9638248109328  -11.06044335624448  10.067022235183279  120.000000
9.679715355805243  0.000000  0.000000  0.000000  -30.20624009587166  14.573769555791976  21.68629672266159  62.398970104346276  13.177610055384468  17.561736871778077  30.400838665544537  52.64209568266275  -10.922888112748417  9.987161075086876  120.000000
9.719880149812735  0.000000  0.000000  0.000000  -29.57363968056419  14.307172253338727  21.10271758976066  62.195224555982996  13.122918477633078  17.0314002110743  31.40259113795558  51.065069272308286  -10.726893118051544  9.901700659768183  120.000000
9.760044943820224  0.000000  0.000000  0.000000  -28.875850129317886  14.01477677538381  20.39893957168173  61.9873470535264  13.035110611622493  16.414907942129457  32.49066896921196  49.23241117001596  -10.46477797942617  9.820728151234743  120.000000
